# xmcd
#
# Track frame offsets:
#	150
#	10557
#	22882
#	35880
#	53082
#	65260
#	79100
#	90092
#	98840
#	110597
#	123060
#	134445
#	155860
#	167432
#	178815
#
# Disc length: 2571 seconds
#
# Revision: 1
# Processed by: cddbd v1.5.2PL0 Copyright (c) Steve Scherf et al.
# Submitted via: audiograbber 1.83.01
#
DISCID=b20a090f
DTITLE=Various Artist - The Immortal US Songs
DYEAR=1900
DGENRE=Blues
TTITLE0=What a wonderful world - Louis Armstrong
TTITLE1=Everybody loves somebody - Dean Martin
TTITLE2=When a man loves a woman - Percy Sledge
TTITLE3=Rainy Night in Georgia - Brook Brenton
TTITLE4=Unforgettable - Dinah Washington
TTITLE5=Tell it like it is - Aaron Neville
TTITLE6=I'm in the mood for Love - Doris Day
TTITLE7=You're nobody till somebody loves you - Dean Martin
TTITLE8=Only you - Platters
TTITLE9=Saturday Night - Frank Sinatra
TTITLE10=What a difference a day makes - Dinah Washington
TTITLE11=Send in the clown - Eydie Gorme
TTITLE12=It's only a paper moon - Ella Fitzgerald
TTITLE13=Just a matter of time - Brook Brenton
TTITLE14=Till the end of time - Perry Como
EXTD=
EXTT0=
EXTT1=
EXTT2=
EXTT3=
EXTT4=
EXTT5=
EXTT6=
EXTT7=
EXTT8=
EXTT9=
EXTT10=
EXTT11=
EXTT12=
EXTT13=
EXTT14=
PLAYORDER=
